<svg xmlns="http://www.w3.org/2000/svg" xmlns:xlink="http://www.w3.org/1999/xlink" preserveAspectRatio="xMidYMid" width="141" height="141" viewBox="0 0 141 141">
  <defs>
    <style>
      .cls-1, .cls-2 {
        fill: #20c2ff;
      }

      .cls-1 {
        opacity: 0.35;
      }

      .cls-3 {
        fill: #fff;
        fill-rule: evenodd;
      }
    </style>
  </defs>
  <circle cx="70.484" cy="70.531" r="70.172" class="cls-1"/>
  <ellipse cx="70.344" cy="70.531" rx="55.406" ry="55.407" class="cls-1"/>
  <circle cx="69.953" cy="69.172" r="39.235" class="cls-2"/>
  <path d="M76.788,58.076 C76.311,57.557 75.516,57.557 75.021,58.076 C74.544,58.577 74.544,59.411 75.021,59.911 L83.981,69.311 L54.416,69.311 C53.727,69.312 53.179,69.887 53.179,70.610 C53.179,71.333 53.727,71.926 54.416,71.926 L83.981,71.926 L75.021,81.309 C74.544,81.827 74.544,82.663 75.021,83.163 C75.516,83.681 76.312,83.681 76.788,83.163 L87.869,71.537 C88.363,71.036 88.363,70.202 87.869,69.702 L76.788,58.076 Z" class="cls-3"/>
</svg>
