<?xml version="1.0" encoding="UTF-8" standalone="no"?><!DOCTYPE svg PUBLIC "-//W3C//DTD SVG 1.1//EN" "http://www.w3.org/Graphics/SVG/1.1/DTD/svg11.dtd"><svg width="100%" height="100%" viewBox="0 0 1296 546" version="1.1" xmlns="http://www.w3.org/2000/svg" xmlns:xlink="http://www.w3.org/1999/xlink" xml:space="preserve" xmlns:serif="http://www.serif.com/" style="fill-rule:evenodd;clip-rule:evenodd;stroke-linejoin:round;stroke-miterlimit:1.41421;"><path d="M546,481l-546,0l0,-481l1296,0c0,233.667 0,247.333 0,481l-551,0l-10,-16l545,0l0,-449l-1264,0l0,449l540,0l-10,16Z" style="fill:#231f20;fill-rule:nonzero;"/><g><path d="M568.054,536.483c0.175,0.389 0.33,0.788 0.501,1.19c0.162,-0.419 0.33,-0.821 0.511,-1.21c0.182,-0.389 0.363,-0.768 0.554,-1.141l5.277,-10.411c0.076,-0.153 0.174,-0.294 0.29,-0.419c0.095,-0.093 0.207,-0.166 0.33,-0.214c0.134,-0.051 0.276,-0.08 0.419,-0.086c0.154,-0.013 0.335,-0.02 0.544,-0.02l3.664,0l0,20.615l-4.215,0l0,-11.843c0,-0.577 0.027,-1.2 0.083,-1.866l-5.458,10.579c-0.153,0.316 -0.398,0.578 -0.703,0.752c-0.298,0.178 -0.642,0.267 -0.989,0.257l-0.66,0c-0.347,0.008 -0.689,-0.081 -0.989,-0.257c-0.288,-0.182 -0.517,-0.443 -0.66,-0.752l-5.477,-10.606c0.036,0.33 0.062,0.66 0.082,0.99c0.02,0.329 0.03,0.626 0.03,0.9l0,11.852l-4.218,0l0,-20.621l3.647,0c0.208,0 0.386,0 0.545,0.02c0.143,0.005 0.284,0.034 0.418,0.086c0.124,0.048 0.236,0.121 0.33,0.214c0.116,0.124 0.213,0.266 0.287,0.419l5.306,10.454c0.198,0.356 0.37,0.732 0.551,1.118Z" style="fill:#231f20;fill-rule:nonzero;"/><path d="M591.33,541.011c0.589,0.007 1.174,-0.105 1.718,-0.33c0.494,-0.199 0.934,-0.512 1.283,-0.914c0.363,-0.421 0.634,-0.915 0.795,-1.447c0.195,-0.63 0.288,-1.287 0.277,-1.946l0,-12.202l4.788,0l0,12.202c0.014,1.194 -0.197,2.38 -0.623,3.496c-0.386,1.024 -0.987,1.954 -1.761,2.727c-0.791,0.785 -1.74,1.394 -2.783,1.787c-2.395,0.849 -5.01,0.849 -7.404,0c-1.043,-0.393 -1.992,-1.002 -2.783,-1.787c-0.775,-0.772 -1.373,-1.702 -1.755,-2.727c-0.415,-1.113 -0.621,-2.292 -0.607,-3.48l0,-12.202l4.779,0l0,12.202c-0.01,0.658 0.083,1.314 0.277,1.943c0.165,0.536 0.436,1.033 0.798,1.461c0.35,0.401 0.79,0.715 1.283,0.917c0.546,0.215 1.131,0.317 1.718,0.3Z" style="fill:#231f20;fill-rule:nonzero;"/><path d="M614.177,528.364c-0.114,0.197 -0.265,0.37 -0.445,0.511c-0.179,0.116 -0.39,0.173 -0.603,0.165c-0.247,-0.008 -0.488,-0.078 -0.699,-0.205c-0.251,-0.132 -0.531,-0.287 -0.848,-0.458c-0.349,-0.181 -0.712,-0.335 -1.085,-0.459c-0.446,-0.144 -0.913,-0.214 -1.382,-0.207c-0.9,0 -1.566,0.194 -2.005,0.577c-0.443,0.388 -0.686,0.958 -0.659,1.546c-0.012,0.384 0.132,0.756 0.399,1.033c0.3,0.297 0.652,0.538 1.038,0.709c0.476,0.217 0.968,0.398 1.471,0.54c0.551,0.169 1.115,0.35 1.692,0.558c0.577,0.202 1.141,0.44 1.689,0.712c0.545,0.266 1.043,0.621 1.474,1.049c0.442,0.444 0.795,0.969 1.039,1.547c0.282,0.697 0.417,1.446 0.395,2.199c0.008,0.915 -0.16,1.823 -0.494,2.675c-0.322,0.817 -0.812,1.557 -1.438,2.173c-0.663,0.637 -1.448,1.132 -2.309,1.454c-1.003,0.37 -2.067,0.55 -3.136,0.531c-0.658,-0.001 -1.314,-0.068 -1.959,-0.201c-1.301,-0.251 -2.549,-0.728 -3.687,-1.408c-0.518,-0.314 -0.998,-0.686 -1.431,-1.108l1.418,-2.233c0.106,-0.174 0.258,-0.317 0.439,-0.412c0.186,-0.101 0.394,-0.154 0.606,-0.155c0.306,0.008 0.603,0.101 0.858,0.27l0.989,0.594c0.399,0.235 0.819,0.433 1.253,0.594c0.536,0.188 1.101,0.279 1.669,0.267c0.72,0.045 1.433,-0.157 2.022,-0.574c0.478,-0.379 0.722,-0.989 0.722,-1.814c0.019,-0.428 -0.122,-0.848 -0.396,-1.177c-0.291,-0.318 -0.645,-0.573 -1.039,-0.749c-0.474,-0.21 -0.964,-0.386 -1.464,-0.524c-0.547,-0.145 -1.108,-0.33 -1.685,-0.501c-0.577,-0.184 -1.139,-0.411 -1.682,-0.68c-0.547,-0.265 -1.042,-0.624 -1.464,-1.062c-0.455,-0.474 -0.809,-1.035 -1.042,-1.649c-0.284,-0.776 -0.417,-1.6 -0.393,-2.427c0.001,-0.777 0.159,-1.547 0.465,-2.262c0.316,-0.746 0.782,-1.42 1.369,-1.979c0.644,-0.599 1.399,-1.067 2.222,-1.378c0.964,-0.36 1.987,-0.535 3.015,-0.515c0.617,-0.002 1.234,0.046 1.843,0.145c0.581,0.096 1.151,0.244 1.705,0.442c0.524,0.185 1.029,0.417 1.511,0.693c0.449,0.258 0.869,0.564 1.253,0.913l-1.211,2.24Z" style="fill:#231f20;fill-rule:nonzero;"/><path d="M622.112,532.525l0.765,0c0.587,0.055 1.162,-0.194 1.524,-0.659l4.643,-6.731c0.21,-0.33 0.511,-0.591 0.867,-0.752c0.383,-0.143 0.789,-0.211 1.198,-0.201l4.158,0l-6.111,8.333c-0.193,0.281 -0.421,0.534 -0.679,0.756c-0.224,0.187 -0.466,0.351 -0.722,0.491c0.357,0.128 0.691,0.313 0.989,0.548c0.324,0.256 0.6,0.569 0.815,0.923l6.226,9.564l-4.264,0c-0.236,0.002 -0.471,-0.016 -0.703,-0.056c-0.174,-0.032 -0.343,-0.09 -0.501,-0.172c-0.137,-0.069 -0.262,-0.161 -0.369,-0.27c-0.109,-0.119 -0.208,-0.246 -0.297,-0.38l-4.667,-7.169c-0.151,-0.248 -0.376,-0.443 -0.643,-0.557c-0.338,-0.122 -0.696,-0.178 -1.055,-0.165l-1.161,0l0,8.769l-4.785,0l0,-20.625l4.785,0l-0.013,8.353Z" style="fill:#231f20;fill-rule:nonzero;"/><path d="M655.453,534.474c0.011,1.423 -0.251,2.835 -0.772,4.159c-0.994,2.546 -3.005,4.566 -5.547,5.573c-2.82,1.077 -5.941,1.077 -8.762,0c-1.271,-0.502 -2.425,-1.261 -3.39,-2.229c-0.946,-0.954 -1.687,-2.093 -2.177,-3.344c-1.031,-2.68 -1.026,-5.651 0.014,-8.327c0.491,-1.249 1.232,-2.384 2.176,-3.337c0.969,-0.961 2.122,-1.716 3.39,-2.22c2.821,-1.077 5.942,-1.077 8.763,0c2.539,1.007 4.549,3.024 5.547,5.567c0.516,1.325 0.773,2.737 0.758,4.158Zm-4.894,0c0.014,-0.932 -0.121,-1.86 -0.399,-2.75c-0.234,-0.763 -0.621,-1.469 -1.138,-2.078c-0.498,-0.566 -1.12,-1.01 -1.817,-1.299c-1.584,-0.598 -3.333,-0.598 -4.917,0c-0.699,0.287 -1.324,0.732 -1.824,1.299c-0.518,0.607 -0.907,1.315 -1.141,2.078c-0.527,1.8 -0.527,3.714 0,5.514c0.234,0.764 0.622,1.471 1.141,2.078c0.498,0.567 1.123,1.009 1.824,1.289c1.584,0.598 3.333,0.598 4.917,0c0.698,-0.282 1.321,-0.723 1.817,-1.289c0.517,-0.608 0.905,-1.315 1.138,-2.078c0.279,-0.894 0.413,-1.827 0.399,-2.764Z" style="fill:#231f20;fill-rule:nonzero;"/><rect x="657.461" y="534.418" width="7.638" height="3.539" style="fill:#231f20;fill-rule:nonzero;"/><path d="M678.98,524.172l0,3.792l-5.798,0l0,16.819l-4.782,0l0,-16.819l-5.801,0l0,-3.792l16.381,0Z" style="fill:#231f20;fill-rule:nonzero;"/><path d="M693.886,524.172l0,3.684l-8.462,0l0,4.805l6.48,0l0,3.538l-6.48,0l0,4.907l8.462,0l0,3.681l-13.27,0l0,-20.615l13.27,0Z" style="fill:#231f20;fill-rule:nonzero;"/><path d="M715.045,544.787l-3.717,0c-0.365,0.014 -0.725,-0.087 -1.029,-0.29c-0.258,-0.182 -0.452,-0.441 -0.554,-0.739l-1.217,-3.598l-7.829,0l-1.213,3.598c-0.114,0.285 -0.306,0.532 -0.554,0.712c-0.288,0.221 -0.643,0.338 -1.006,0.33l-3.746,0l7.974,-20.615l4.9,0l7.991,20.602Zm-13.241,-7.885l5.626,0l-1.893,-5.646l-0.432,-1.263c-0.161,-0.488 -0.33,-1.016 -0.488,-1.58c-0.148,0.577 -0.307,1.111 -0.465,1.599c-0.158,0.489 -0.313,0.914 -0.455,1.273l-1.893,5.617Z" style="fill:#231f20;fill-rule:nonzero;"/><path d="M726.927,536.483c0.178,0.389 0.33,0.788 0.501,1.19c0.162,-0.419 0.33,-0.821 0.511,-1.21c0.182,-0.389 0.366,-0.768 0.554,-1.141l5.277,-10.411c0.075,-0.153 0.172,-0.294 0.287,-0.419c0.094,-0.093 0.206,-0.166 0.33,-0.214c0.134,-0.051 0.275,-0.08 0.418,-0.086c0.155,0 0.33,-0.02 0.541,-0.02l3.684,0l0,20.615l-4.228,0l0,-11.843c0,-0.577 0.03,-1.2 0.086,-1.866l-5.461,10.589c-0.149,0.312 -0.387,0.573 -0.683,0.752c-0.299,0.176 -0.642,0.265 -0.989,0.257l-0.66,0c-0.347,0.009 -0.69,-0.08 -0.989,-0.257c-0.298,-0.177 -0.537,-0.439 -0.686,-0.752l-5.488,-10.606c0.037,0.33 0.066,0.66 0.086,0.989c0.02,0.33 0.026,0.627 0.026,0.901l0,11.852l-4.198,0l0,-20.631l3.651,0c0.208,0 0.383,0 0.544,0.02c0.141,0.006 0.281,0.034 0.412,0.086c0.124,0.046 0.237,0.119 0.33,0.214c0.118,0.124 0.217,0.265 0.294,0.419l5.303,10.454c0.194,0.356 0.372,0.732 0.547,1.118Z" style="fill:#231f20;fill-rule:nonzero;"/><path d="M613.957,519.868l-2.738,2.869c-0.253,0.266 -0.597,0.427 -0.963,0.452l-3.261,0l1.889,-2.938c0.165,-0.257 0.458,-0.404 0.762,-0.383l4.311,0Z" style="fill:#231f20;fill-rule:nonzero;"/><path d="M620.285,416.979l34.819,86.925l20.601,0l-34.766,-86.925l-20.654,0Z" style="fill:#00aeef;fill-rule:nonzero;"/><path d="M712.67,503.904l-34.769,-86.925l-0.046,0l-20.608,0l-0.049,0l-4.822,12.618l10.639,24.806l4.584,-11.569l24.463,61.07l20.608,0Z" style="fill:#231f20;fill-rule:nonzero;"/><path d="M627.778,490.448l-16.325,0l15.421,-38.647l-10.527,-25.486l-30.871,77.589l57.557,0l2.619,-6.728l-10.411,-25.489l-7.463,18.761Z" style="fill:#231f20;fill-rule:nonzero;"/></g><g><path d="M568.054,536.483c0.175,0.389 0.33,0.788 0.501,1.19c0.162,-0.419 0.33,-0.821 0.511,-1.21c0.182,-0.389 0.363,-0.768 0.554,-1.141l5.277,-10.411c0.076,-0.153 0.174,-0.294 0.29,-0.419c0.095,-0.093 0.207,-0.166 0.33,-0.214c0.134,-0.051 0.276,-0.08 0.419,-0.086c0.154,-0.013 0.335,-0.02 0.544,-0.02l3.664,0l0,20.615l-4.215,0l0,-11.843c0,-0.577 0.027,-1.2 0.083,-1.866l-5.458,10.579c-0.153,0.316 -0.398,0.578 -0.703,0.752c-0.298,0.178 -0.642,0.267 -0.989,0.257l-0.66,0c-0.347,0.008 -0.689,-0.081 -0.989,-0.257c-0.288,-0.182 -0.517,-0.443 -0.66,-0.752l-5.477,-10.606c0.036,0.33 0.062,0.66 0.082,0.99c0.02,0.329 0.03,0.626 0.03,0.9l0,11.852l-4.218,0l0,-20.621l3.647,0c0.208,0 0.386,0 0.545,0.02c0.143,0.005 0.284,0.034 0.418,0.086c0.124,0.048 0.236,0.121 0.33,0.214c0.116,0.124 0.213,0.266 0.287,0.419l5.306,10.454c0.198,0.356 0.37,0.732 0.551,1.118Z" style="fill:#231f20;fill-rule:nonzero;"/><path d="M591.33,541.011c0.589,0.007 1.174,-0.105 1.718,-0.33c0.494,-0.199 0.934,-0.512 1.283,-0.914c0.363,-0.421 0.634,-0.915 0.795,-1.447c0.195,-0.63 0.288,-1.287 0.277,-1.946l0,-12.202l4.788,0l0,12.202c0.014,1.194 -0.197,2.38 -0.623,3.496c-0.386,1.024 -0.987,1.954 -1.761,2.727c-0.791,0.785 -1.74,1.394 -2.783,1.787c-2.395,0.849 -5.01,0.849 -7.404,0c-1.043,-0.393 -1.992,-1.002 -2.783,-1.787c-0.775,-0.772 -1.373,-1.702 -1.755,-2.727c-0.415,-1.113 -0.621,-2.292 -0.607,-3.48l0,-12.202l4.779,0l0,12.202c-0.01,0.658 0.083,1.314 0.277,1.943c0.165,0.536 0.436,1.033 0.798,1.461c0.35,0.401 0.79,0.715 1.283,0.917c0.546,0.215 1.131,0.317 1.718,0.3Z" style="fill:#231f20;fill-rule:nonzero;"/><path d="M614.177,528.364c-0.114,0.197 -0.265,0.37 -0.445,0.511c-0.179,0.116 -0.39,0.173 -0.603,0.165c-0.247,-0.008 -0.488,-0.078 -0.699,-0.205c-0.251,-0.132 -0.531,-0.287 -0.848,-0.458c-0.349,-0.181 -0.712,-0.335 -1.085,-0.459c-0.446,-0.144 -0.913,-0.214 -1.382,-0.207c-0.9,0 -1.566,0.194 -2.005,0.577c-0.443,0.388 -0.686,0.958 -0.659,1.546c-0.012,0.384 0.132,0.756 0.399,1.033c0.3,0.297 0.652,0.538 1.038,0.709c0.476,0.217 0.968,0.398 1.471,0.54c0.551,0.169 1.115,0.35 1.692,0.558c0.577,0.202 1.141,0.44 1.689,0.712c0.545,0.266 1.043,0.621 1.474,1.049c0.442,0.444 0.795,0.969 1.039,1.547c0.282,0.697 0.417,1.446 0.395,2.199c0.008,0.915 -0.16,1.823 -0.494,2.675c-0.322,0.817 -0.812,1.557 -1.438,2.173c-0.663,0.637 -1.448,1.132 -2.309,1.454c-1.003,0.37 -2.067,0.55 -3.136,0.531c-0.658,-0.001 -1.314,-0.068 -1.959,-0.201c-1.301,-0.251 -2.549,-0.728 -3.687,-1.408c-0.518,-0.314 -0.998,-0.686 -1.431,-1.108l1.418,-2.233c0.106,-0.174 0.258,-0.317 0.439,-0.412c0.186,-0.101 0.394,-0.154 0.606,-0.155c0.306,0.008 0.603,0.101 0.858,0.27l0.989,0.594c0.399,0.235 0.819,0.433 1.253,0.594c0.536,0.188 1.101,0.279 1.669,0.267c0.72,0.045 1.433,-0.157 2.022,-0.574c0.478,-0.379 0.722,-0.989 0.722,-1.814c0.019,-0.428 -0.122,-0.848 -0.396,-1.177c-0.291,-0.318 -0.645,-0.573 -1.039,-0.749c-0.474,-0.21 -0.964,-0.386 -1.464,-0.524c-0.547,-0.145 -1.108,-0.33 -1.685,-0.501c-0.577,-0.184 -1.139,-0.411 -1.682,-0.68c-0.547,-0.265 -1.042,-0.624 -1.464,-1.062c-0.455,-0.474 -0.809,-1.035 -1.042,-1.649c-0.284,-0.776 -0.417,-1.6 -0.393,-2.427c0.001,-0.777 0.159,-1.547 0.465,-2.262c0.316,-0.746 0.782,-1.42 1.369,-1.979c0.644,-0.599 1.399,-1.067 2.222,-1.378c0.964,-0.36 1.987,-0.535 3.015,-0.515c0.617,-0.002 1.234,0.046 1.843,0.145c0.581,0.096 1.151,0.244 1.705,0.442c0.524,0.185 1.029,0.417 1.511,0.693c0.449,0.258 0.869,0.564 1.253,0.913l-1.211,2.24Z" style="fill:#231f20;fill-rule:nonzero;"/><path d="M622.112,532.525l0.765,0c0.587,0.055 1.162,-0.194 1.524,-0.659l4.643,-6.731c0.21,-0.33 0.511,-0.591 0.867,-0.752c0.383,-0.143 0.789,-0.211 1.198,-0.201l4.158,0l-6.111,8.333c-0.193,0.281 -0.421,0.534 -0.679,0.756c-0.224,0.187 -0.466,0.351 -0.722,0.491c0.357,0.128 0.691,0.313 0.989,0.548c0.324,0.256 0.6,0.569 0.815,0.923l6.226,9.564l-4.264,0c-0.236,0.002 -0.471,-0.016 -0.703,-0.056c-0.174,-0.032 -0.343,-0.09 -0.501,-0.172c-0.137,-0.069 -0.262,-0.161 -0.369,-0.27c-0.109,-0.119 -0.208,-0.246 -0.297,-0.38l-4.667,-7.169c-0.151,-0.248 -0.376,-0.443 -0.643,-0.557c-0.338,-0.122 -0.696,-0.178 -1.055,-0.165l-1.161,0l0,8.769l-4.785,0l0,-20.625l4.785,0l-0.013,8.353Z" style="fill:#231f20;fill-rule:nonzero;"/><path d="M655.453,534.474c0.011,1.423 -0.251,2.835 -0.772,4.159c-0.994,2.546 -3.005,4.566 -5.547,5.573c-2.82,1.077 -5.941,1.077 -8.762,0c-1.271,-0.502 -2.425,-1.261 -3.39,-2.229c-0.946,-0.954 -1.687,-2.093 -2.177,-3.344c-1.031,-2.68 -1.026,-5.651 0.014,-8.327c0.491,-1.249 1.232,-2.384 2.176,-3.337c0.969,-0.961 2.122,-1.716 3.39,-2.22c2.821,-1.077 5.942,-1.077 8.763,0c2.539,1.007 4.549,3.024 5.547,5.567c0.516,1.325 0.773,2.737 0.758,4.158Zm-4.894,0c0.014,-0.932 -0.121,-1.86 -0.399,-2.75c-0.234,-0.763 -0.621,-1.469 -1.138,-2.078c-0.498,-0.566 -1.12,-1.01 -1.817,-1.299c-1.584,-0.598 -3.333,-0.598 -4.917,0c-0.699,0.287 -1.324,0.732 -1.824,1.299c-0.518,0.607 -0.907,1.315 -1.141,2.078c-0.527,1.8 -0.527,3.714 0,5.514c0.234,0.764 0.622,1.471 1.141,2.078c0.498,0.567 1.123,1.009 1.824,1.289c1.584,0.598 3.333,0.598 4.917,0c0.698,-0.282 1.321,-0.723 1.817,-1.289c0.517,-0.608 0.905,-1.315 1.138,-2.078c0.279,-0.894 0.413,-1.827 0.399,-2.764Z" style="fill:#231f20;fill-rule:nonzero;"/><rect x="657.461" y="534.418" width="7.638" height="3.539" style="fill:#231f20;fill-rule:nonzero;"/><path d="M678.98,524.172l0,3.792l-5.798,0l0,16.819l-4.782,0l0,-16.819l-5.801,0l0,-3.792l16.381,0Z" style="fill:#231f20;fill-rule:nonzero;"/><path d="M693.886,524.172l0,3.684l-8.462,0l0,4.805l6.48,0l0,3.538l-6.48,0l0,4.907l8.462,0l0,3.681l-13.27,0l0,-20.615l13.27,0Z" style="fill:#231f20;fill-rule:nonzero;"/><path d="M715.045,544.787l-3.717,0c-0.365,0.014 -0.725,-0.087 -1.029,-0.29c-0.258,-0.182 -0.452,-0.441 -0.554,-0.739l-1.217,-3.598l-7.829,0l-1.213,3.598c-0.114,0.285 -0.306,0.532 -0.554,0.712c-0.288,0.221 -0.643,0.338 -1.006,0.33l-3.746,0l7.974,-20.615l4.9,0l7.991,20.602Zm-13.241,-7.885l5.626,0l-1.893,-5.646l-0.432,-1.263c-0.161,-0.488 -0.33,-1.016 -0.488,-1.58c-0.148,0.577 -0.307,1.111 -0.465,1.599c-0.158,0.489 -0.313,0.914 -0.455,1.273l-1.893,5.617Z" style="fill:#231f20;fill-rule:nonzero;"/><path d="M726.927,536.483c0.178,0.389 0.33,0.788 0.501,1.19c0.162,-0.419 0.33,-0.821 0.511,-1.21c0.182,-0.389 0.366,-0.768 0.554,-1.141l5.277,-10.411c0.075,-0.153 0.172,-0.294 0.287,-0.419c0.094,-0.093 0.206,-0.166 0.33,-0.214c0.134,-0.051 0.275,-0.08 0.418,-0.086c0.155,0 0.33,-0.02 0.541,-0.02l3.684,0l0,20.615l-4.228,0l0,-11.843c0,-0.577 0.03,-1.2 0.086,-1.866l-5.461,10.589c-0.149,0.312 -0.387,0.573 -0.683,0.752c-0.299,0.176 -0.642,0.265 -0.989,0.257l-0.66,0c-0.347,0.009 -0.69,-0.08 -0.989,-0.257c-0.298,-0.177 -0.537,-0.439 -0.686,-0.752l-5.488,-10.606c0.037,0.33 0.066,0.66 0.086,0.989c0.02,0.33 0.026,0.627 0.026,0.901l0,11.852l-4.198,0l0,-20.631l3.651,0c0.208,0 0.383,0 0.544,0.02c0.141,0.006 0.281,0.034 0.412,0.086c0.124,0.046 0.237,0.119 0.33,0.214c0.118,0.124 0.217,0.265 0.294,0.419l5.303,10.454c0.194,0.356 0.372,0.732 0.547,1.118Z" style="fill:#231f20;fill-rule:nonzero;"/><path d="M613.957,519.868l-2.738,2.869c-0.253,0.266 -0.597,0.427 -0.963,0.452l-3.261,0l1.889,-2.938c0.165,-0.257 0.458,-0.404 0.762,-0.383l4.311,0Z" style="fill:#231f20;fill-rule:nonzero;"/><path d="M620.285,416.979l34.819,86.925l20.601,0l-34.766,-86.925l-20.654,0Z" style="fill:#00aeef;fill-rule:nonzero;"/><path d="M712.67,503.904l-34.769,-86.925l-0.046,0l-20.608,0l-0.049,0l-4.822,12.618l10.639,24.806l4.584,-11.569l24.463,61.07l20.608,0Z" style="fill:#231f20;fill-rule:nonzero;"/><path d="M627.778,490.448l-16.325,0l15.421,-38.647l-10.527,-25.486l-30.871,77.589l57.557,0l2.619,-6.728l-10.411,-25.489l-7.463,18.761Z" style="fill:#231f20;fill-rule:nonzero;"/></g></svg>