<svg id="Layer_1" data-name="Layer 1" xmlns="http://www.w3.org/2000/svg" viewBox="0 0 566.93 402"><defs><style>.cls-1{fill:#231f20;}.cls-2{fill:#00aeef;}</style></defs><title>logo1</title><path class="cls-1" d="M40.55,370.73c.53,1.18,1,2.39,1.52,3.61.49-1.27,1-2.49,1.55-3.67s1.1-2.33,1.68-3.46l16-31.57a5.47,5.47,0,0,1,.88-1.27,3,3,0,0,1,1-.65,4.15,4.15,0,0,1,1.27-.26q.7-.06,1.65-.06H77.21v62.51H64.43V360c0-1.75.08-3.64.25-5.66L48.13,386.42A5.28,5.28,0,0,1,46,388.7a5.56,5.56,0,0,1-3,.78h-2a5.68,5.68,0,0,1-3-.78A5.36,5.36,0,0,1,36,386.42L19.39,354.26c.11,1,.19,2,.25,3s.09,1.9.09,2.73v35.94H6.94V333.4H18c.63,0,1.17,0,1.65.06a4,4,0,0,1,1.27.26,3,3,0,0,1,1,.65,5.18,5.18,0,0,1,.87,1.27l16.09,31.7C39.48,368.42,40,369.56,40.55,370.73Z"/><path class="cls-1" d="M111.13,384.46a13.22,13.22,0,0,0,5.21-1,10.23,10.23,0,0,0,3.89-2.77,12.09,12.09,0,0,0,2.41-4.39,18.85,18.85,0,0,0,.84-5.9v-37H138v37A28.77,28.77,0,0,1,136.11,381a23.32,23.32,0,0,1-5.34,8.27,24,24,0,0,1-8.44,5.42,33.61,33.61,0,0,1-22.45,0,24,24,0,0,1-8.44-5.42A23,23,0,0,1,86.12,381a29.19,29.19,0,0,1-1.84-10.55v-37H98.77v37a19,19,0,0,0,.84,5.89,12.62,12.62,0,0,0,2.42,4.43,10.37,10.37,0,0,0,3.89,2.78A13.19,13.19,0,0,0,111.13,384.46Z"/><path class="cls-1" d="M180.41,346.11a5.41,5.41,0,0,1-1.35,1.55,3.14,3.14,0,0,1-1.83.5,4.38,4.38,0,0,1-2.12-.62c-.76-.4-1.61-.87-2.57-1.39a22.61,22.61,0,0,0-3.29-1.39,13,13,0,0,0-4.19-.63c-2.73,0-4.75.59-6.08,1.75a5.89,5.89,0,0,0-2,4.69,4.32,4.32,0,0,0,1.21,3.13,10.51,10.51,0,0,0,3.15,2.15,31.29,31.29,0,0,0,4.46,1.64c1.67.51,3.38,1.06,5.13,1.69a44.81,44.81,0,0,1,5.12,2.16,16.74,16.74,0,0,1,4.47,3.18,14.81,14.81,0,0,1,3.15,4.69,16.5,16.5,0,0,1,1.2,6.67,21.74,21.74,0,0,1-1.5,8.11,19,19,0,0,1-4.36,6.59,20.44,20.44,0,0,1-7,4.41,26.23,26.23,0,0,1-9.51,1.61,29.73,29.73,0,0,1-5.94-.61,34.59,34.59,0,0,1-11.18-4.27,24.14,24.14,0,0,1-4.34-3.36l4.3-6.77a3.42,3.42,0,0,1,1.33-1.25,3.9,3.9,0,0,1,1.84-.47,4.92,4.92,0,0,1,2.6.82l3,1.8a23.6,23.6,0,0,0,3.8,1.8,14.32,14.32,0,0,0,5.06.81,9.56,9.56,0,0,0,6.13-1.74c1.45-1.15,2.19-3,2.19-5.5a5.23,5.23,0,0,0-1.2-3.57,9.53,9.53,0,0,0-3.15-2.27,32.07,32.07,0,0,0-4.44-1.59c-1.66-.44-3.36-1-5.11-1.52a36.26,36.26,0,0,1-5.1-2.06,15.69,15.69,0,0,1-4.44-3.22,14.87,14.87,0,0,1-3.16-5,19.73,19.73,0,0,1-1.19-7.36,17.51,17.51,0,0,1,1.41-6.86,17.93,17.93,0,0,1,4.15-6,20.59,20.59,0,0,1,6.74-4.18,24.77,24.77,0,0,1,9.14-1.56,34.11,34.11,0,0,1,5.59.44,29.65,29.65,0,0,1,5.17,1.34,27.73,27.73,0,0,1,4.58,2.1,21.7,21.7,0,0,1,3.8,2.77Z"/><path class="cls-1" d="M204.47,358.73h2.32a5.23,5.23,0,0,0,4.62-2l14.08-20.41a6.09,6.09,0,0,1,2.63-2.28,9.73,9.73,0,0,1,3.63-.61h12.61l-18.53,25.27a11.94,11.94,0,0,1-2.06,2.29,13.47,13.47,0,0,1-2.19,1.49,10.72,10.72,0,0,1,3,1.66,10.52,10.52,0,0,1,2.47,2.8l18.88,29H233a11.69,11.69,0,0,1-2.13-.17,5.42,5.42,0,0,1-1.52-.52,4.26,4.26,0,0,1-1.12-.82,9.19,9.19,0,0,1-.9-1.15l-14.15-21.74a4.25,4.25,0,0,0-1.95-1.69,8.51,8.51,0,0,0-3.2-.5h-3.52v26.59H190V333.4h14.51Z"/><path class="cls-1" d="M305.57,364.64a33.75,33.75,0,0,1-2.34,12.61,29.87,29.87,0,0,1-16.82,16.9,37.24,37.24,0,0,1-26.57,0,30.16,30.16,0,0,1-10.28-6.76,29.85,29.85,0,0,1-6.6-10.14A35,35,0,0,1,243,352a30,30,0,0,1,6.6-10.12,30.69,30.69,0,0,1,10.28-6.73,37.24,37.24,0,0,1,26.57,0,29.91,29.91,0,0,1,16.82,16.88A33.73,33.73,0,0,1,305.57,364.64Zm-14.84,0a26.7,26.7,0,0,0-1.21-8.34,17.82,17.82,0,0,0-3.45-6.3,15,15,0,0,0-5.51-3.94,21.11,21.11,0,0,0-14.91,0,14.92,14.92,0,0,0-5.53,3.94,17.68,17.68,0,0,0-3.46,6.3,29.72,29.72,0,0,0,0,16.72,17.59,17.59,0,0,0,3.46,6.3,14.52,14.52,0,0,0,5.53,3.91,21.11,21.11,0,0,0,14.91,0,14.6,14.6,0,0,0,5.51-3.91,17.73,17.73,0,0,0,3.45-6.3A26.78,26.78,0,0,0,290.73,364.64Z"/><path class="cls-1" d="M311.66,364.47h23.16V375.2H311.66Z"/><path class="cls-1" d="M376.91,333.4v11.5H359.33v51h-14.5v-51H327.24V333.4Z"/><path class="cls-1" d="M422.11,333.4v11.17H396.45v14.57H416.1v10.73H396.45v14.88h25.66v11.16H381.87V333.4Z"/><path class="cls-1" d="M486.27,395.91H475a5.23,5.23,0,0,1-3.12-.88,4.54,4.54,0,0,1-1.68-2.24l-3.69-10.91H442.77l-3.68,10.91a4.9,4.9,0,0,1-1.68,2.16,4.83,4.83,0,0,1-3.05,1H423l24.18-62.51h14.86ZM446.12,372h17.06l-5.74-17.12-1.31-3.83c-.49-1.48-1-3.08-1.48-4.79-.45,1.75-.93,3.37-1.41,4.85s-.95,2.77-1.38,3.86Z"/><path class="cls-1" d="M522.3,370.73c.54,1.18,1,2.39,1.52,3.61.49-1.27,1-2.49,1.55-3.67s1.11-2.33,1.68-3.46l16-31.57a5.47,5.47,0,0,1,.87-1.27,3,3,0,0,1,1-.65,4.09,4.09,0,0,1,1.27-.26c.47,0,1-.06,1.64-.06H559v62.51H546.18V360c0-1.75.09-3.64.26-5.66l-16.56,32.11a5.36,5.36,0,0,1-2.07,2.28,5.68,5.68,0,0,1-3,.78h-2a5.62,5.62,0,0,1-3-.78,5.32,5.32,0,0,1-2.08-2.28l-16.64-32.16c.11,1,.2,2,.26,3s.08,1.9.08,2.73v35.94H488.7V333.4h11.07c.63,0,1.16,0,1.65.06a3.9,3.9,0,0,1,1.25.26,2.78,2.78,0,0,1,1,.65,5.19,5.19,0,0,1,.89,1.27l16.08,31.7C521.23,368.42,521.77,369.56,522.3,370.73Z"/><path class="cls-1" d="M179.74,320.35l-8.3,8.7a4.47,4.47,0,0,1-2.92,1.37h-9.89l5.73-8.91a2.53,2.53,0,0,1,2.31-1.16Z"/><polygon class="cls-2" points="198.93 8.36 304.51 271.94 366.98 271.94 261.56 8.36 198.93 8.36"/><polygon class="cls-1" points="479.07 271.94 373.64 8.36 373.5 8.36 311.01 8.36 310.86 8.36 296.24 46.62 328.5 121.84 342.4 86.76 416.58 271.94 479.07 271.94"/><polygon class="cls-1" points="221.65 231.14 172.15 231.14 218.91 113.95 186.99 36.67 93.38 271.94 126.46 271.94 155.87 271.94 205.42 271.94 240.24 271.94 267.91 271.94 275.85 251.54 244.28 174.25 221.65 231.14"/></svg>