<svg id="Layer_1" data-name="Layer 1" xmlns="http://www.w3.org/2000/svg" viewBox="0 0 566.93 90"><defs><style>.cls-1{fill:#231f20;}.cls-2{fill:#00aeef;}</style></defs><title>logo2</title><path class="cls-1" d="M163.75,50.33c.4.9.79,1.82,1.16,2.75.37-1,.76-1.89,1.18-2.79s.84-1.79,1.28-2.64L179.6,23.56a3.83,3.83,0,0,1,.68-1,2.12,2.12,0,0,1,.76-.51,3.21,3.21,0,0,1,1-.19c.36,0,.78,0,1.26,0h8.44V69.54H182V42.12c0-1.33.06-2.77.2-4.32L169.53,62.31a4.27,4.27,0,0,1-1.59,1.74,4.44,4.44,0,0,1-2.28.58h-1.5a4.44,4.44,0,0,1-2.28-.58,4.19,4.19,0,0,1-1.58-1.74L147.6,37.77c.08.76.15,1.52.19,2.27s.07,1.45.07,2.08V69.54h-9.75V21.86h8.44c.48,0,.9,0,1.26,0a3.21,3.21,0,0,1,1,.19,2.25,2.25,0,0,1,.77.51,4.41,4.41,0,0,1,.67,1l12.27,24.19Q163.14,49,163.75,50.33Z"/><path class="cls-1" d="M217.59,60.81a10.14,10.14,0,0,0,4-.74,8,8,0,0,0,3-2.11,9.44,9.44,0,0,0,1.84-3.35A14.53,14.53,0,0,0,227,50.1V21.86h11.06V50.1a22.09,22.09,0,0,1-1.42,8.06,18.1,18.1,0,0,1-4.07,6.31,18.52,18.52,0,0,1-6.45,4.13,25.66,25.66,0,0,1-17.12,0,18.39,18.39,0,0,1-6.44-4.13,17.8,17.8,0,0,1-4.06-6.31,22.3,22.3,0,0,1-1.41-8.06V21.86h11.06V50.07a14.81,14.81,0,0,0,.64,4.5,9.46,9.46,0,0,0,1.85,3.37,7.92,7.92,0,0,0,3,2.13A10.2,10.2,0,0,0,217.59,60.81Z"/><path class="cls-1" d="M270.44,31.55a4.23,4.23,0,0,1-1,1.18,2.33,2.33,0,0,1-1.39.39,3.48,3.48,0,0,1-1.62-.47l-2-1.07a16.78,16.78,0,0,0-2.5-1.06,9.94,9.94,0,0,0-3.21-.48,6.93,6.93,0,0,0-4.63,1.33A4.52,4.52,0,0,0,252.57,35a3.31,3.31,0,0,0,.92,2.39,7.8,7.8,0,0,0,2.4,1.64,25.57,25.57,0,0,0,3.41,1.26c1.27.38,2.58.81,3.91,1.28a34.13,34.13,0,0,1,3.91,1.65,13.06,13.06,0,0,1,3.4,2.42,11.39,11.39,0,0,1,2.41,3.58,12.79,12.79,0,0,1,.91,5.09,16.65,16.65,0,0,1-1.14,6.19,14.57,14.57,0,0,1-3.32,5A15.41,15.41,0,0,1,264,68.84a20.08,20.08,0,0,1-7.25,1.23,23.68,23.68,0,0,1-4.53-.46,28,28,0,0,1-4.47-1.29,26.79,26.79,0,0,1-4.06-2,17.7,17.7,0,0,1-3.3-2.55l3.27-5.17a2.57,2.57,0,0,1,1-.95,2.8,2.8,0,0,1,1.41-.37,3.66,3.66,0,0,1,2,.63l2.26,1.37a18.68,18.68,0,0,0,2.9,1.38,10.93,10.93,0,0,0,3.86.62A7.34,7.34,0,0,0,261.77,60a5,5,0,0,0,1.67-4.2,4,4,0,0,0-.92-2.72,6.88,6.88,0,0,0-2.41-1.73,23.16,23.16,0,0,0-3.38-1.22c-1.27-.34-2.57-.73-3.9-1.16a27.75,27.75,0,0,1-3.89-1.57,12.24,12.24,0,0,1-3.39-2.45,11.44,11.44,0,0,1-2.4-3.8,15,15,0,0,1-.92-5.61,13.45,13.45,0,0,1,4.26-9.78,15.25,15.25,0,0,1,5.13-3.19,18.93,18.93,0,0,1,7-1.2,26,26,0,0,1,4.27.34,22.41,22.41,0,0,1,3.95,1,22.13,22.13,0,0,1,3.48,1.6,16.24,16.24,0,0,1,2.9,2.11Z"/><path class="cls-1" d="M288.79,41.17h1.77a4,4,0,0,0,3.53-1.54l10.74-15.57a4.67,4.67,0,0,1,2-1.74,7.5,7.5,0,0,1,2.77-.46h9.62L305.09,41.14a9.54,9.54,0,0,1-1.57,1.73A10.18,10.18,0,0,1,301.85,44a8,8,0,0,1,2.27,1.26A8.32,8.32,0,0,1,306,47.42l14.4,22.12h-9.89a8.42,8.42,0,0,1-1.62-.13,3.77,3.77,0,0,1-1.16-.39,3.22,3.22,0,0,1-.85-.64,6.29,6.29,0,0,1-.69-.87L295.4,50.92a3.24,3.24,0,0,0-1.49-1.29,6.44,6.44,0,0,0-2.43-.38h-2.69V69.54H277.73V21.86h11.06Z"/><path class="cls-1" d="M365.92,45.69a25.64,25.64,0,0,1-1.79,9.62A22.71,22.71,0,0,1,351.31,68.2a28.43,28.43,0,0,1-20.28,0,23.2,23.2,0,0,1-7.84-5.15,22.86,22.86,0,0,1-5-7.74,25.44,25.44,0,0,1-1.79-9.62,25.41,25.41,0,0,1,1.79-9.62,22.72,22.72,0,0,1,5-7.73A23.3,23.3,0,0,1,331,23.21a28.36,28.36,0,0,1,20.28,0,23.35,23.35,0,0,1,7.8,5.16,23,23,0,0,1,5,7.72A25.52,25.52,0,0,1,365.92,45.69Zm-11.33,0a20.68,20.68,0,0,0-.91-6.37A13.46,13.46,0,0,0,351,34.53a11.29,11.29,0,0,0-4.2-3,14.46,14.46,0,0,0-5.66-1.05,14.7,14.7,0,0,0-5.72,1.05,11.45,11.45,0,0,0-4.22,3,13.59,13.59,0,0,0-2.63,4.79,20.67,20.67,0,0,0-.92,6.37,20.66,20.66,0,0,0,.92,6.39,13.55,13.55,0,0,0,2.63,4.8,11.17,11.17,0,0,0,4.22,3,14.88,14.88,0,0,0,5.72,1,14.64,14.64,0,0,0,5.66-1,11,11,0,0,0,4.2-3,13.42,13.42,0,0,0,2.64-4.8A20.67,20.67,0,0,0,354.59,45.69Z"/><path class="cls-1" d="M370.56,45.56h17.68v8.18H370.56Z"/><path class="cls-1" d="M420.35,21.86v8.77H406.93V69.54H395.87V30.63H382.45V21.86Z"/><path class="cls-1" d="M454.82,21.86v8.51H435.25V41.5h15v8.18h-15V61h19.57v8.5h-30.7V21.86Z"/><path class="cls-1" d="M503.77,69.54H495.2a4,4,0,0,1-2.38-.67,3.45,3.45,0,0,1-1.29-1.71l-2.81-8.32H470.59l-2.82,8.32a3.76,3.76,0,0,1-3.6,2.38h-8.64L474,21.86h11.32ZM473.14,51.32h13l-4.38-13.06c-.29-.83-.62-1.81-1-2.93S480,33,479.65,31.68c-.35,1.33-.71,2.57-1.08,3.7s-.72,2.12-1,2.94Z"/><path class="cls-1" d="M531.26,50.33c.41.9.79,1.82,1.16,2.75.37-1,.77-1.89,1.18-2.79s.84-1.79,1.28-2.64l12.24-24.09a4.09,4.09,0,0,1,.67-1,2.16,2.16,0,0,1,.77-.51,3.09,3.09,0,0,1,1-.19c.36,0,.78,0,1.26,0h8.45V69.54h-9.76V42.12c0-1.33.07-2.77.2-4.32L537,62.31a4.14,4.14,0,0,1-1.59,1.74,4.38,4.38,0,0,1-2.27.58h-1.51a4.38,4.38,0,0,1-2.27-.58,4.14,4.14,0,0,1-1.59-1.74l-12.7-24.54c.09.76.15,1.52.2,2.27s.06,1.45.06,2.08V69.54h-9.75V21.86h8.45c.47,0,.89,0,1.26,0a3.09,3.09,0,0,1,1,.19,2.25,2.25,0,0,1,.77.51,4.09,4.09,0,0,1,.67,1L530,47.75Q530.66,49,531.26,50.33Z"/><path class="cls-1" d="M269.93,11.9l-6.33,6.64a3.46,3.46,0,0,1-2.23,1h-7.54l4.37-6.79A1.91,1.91,0,0,1,260,11.9Z"/><polygon class="cls-2" points="37.45 5.98 68.94 84.61 87.58 84.61 56.13 5.98 37.45 5.98"/><polygon class="cls-1" points="121.01 84.61 89.56 5.98 89.52 5.98 70.88 5.98 70.83 5.98 66.47 17.39 76.1 39.83 80.25 29.37 102.37 84.61 121.01 84.61"/><polygon class="cls-1" points="44.22 72.43 29.46 72.43 43.41 37.48 33.89 14.43 5.96 84.61 15.83 84.61 24.6 84.61 39.38 84.61 49.77 84.61 58.02 84.61 60.39 78.52 50.97 55.47 44.22 72.43"/></svg>